<svg width="179" height="140" viewBox="0 0 179 140" fill="none" xmlns="http://www.w3.org/2000/svg">
<g clip-path="url(#clip0_1_1504)">
<path d="M109.378 124.345L104.625 128.715L108.403 122.385C105.426 116.995 100.559 112.337 100.559 112.337C100.559 112.337 90.4601 121.999 90.4601 129.594C90.4601 137.189 94.9814 139.841 100.559 139.841C106.136 139.841 110.657 137.189 110.657 129.594C110.657 127.903 110.156 126.111 109.378 124.345Z" fill="#F2F2F2"/>
<path d="M103.403 128.951V129.326C103.38 133.677 102.645 137.073 101.203 139.463C101.183 139.499 101.161 139.532 101.14 139.567L100.979 139.469L100.825 139.373C102.425 136.791 102.991 133.142 103.011 129.346C103.013 129.224 103.015 129.1 103.013 128.975C103.007 127.369 102.909 125.743 102.751 124.164C102.74 124.042 102.727 123.918 102.714 123.793C102.495 121.71 102.18 119.72 101.857 117.991C101.834 117.868 101.81 117.746 101.786 117.626C101.227 114.701 100.658 112.583 100.528 112.114C100.513 112.056 100.504 112.025 100.502 112.017L100.678 111.967L100.68 111.965L100.858 111.915C100.86 111.923 100.892 112.028 100.944 112.225C101.142 112.959 101.658 114.951 102.165 117.579C102.187 117.698 102.211 117.82 102.233 117.942C102.497 119.345 102.755 120.913 102.959 122.559C103.011 122.972 103.057 123.38 103.098 123.782C103.113 123.907 103.126 124.031 103.137 124.153C103.308 125.86 103.396 127.459 103.403 128.951Z" fill="white"/>
<path d="M102.165 117.579C102.04 117.596 101.914 117.613 101.786 117.626C101.438 117.661 101.089 117.679 100.739 117.679C99.2494 117.681 97.7781 117.349 96.4337 116.708C96.3557 116.806 96.2778 116.905 96.198 117.005C97.6122 117.694 99.1656 118.052 100.739 118.05C101.112 118.05 101.485 118.03 101.857 117.991C101.983 117.978 102.109 117.961 102.233 117.942C103.26 117.795 104.258 117.494 105.193 117.047C105.114 116.945 105.036 116.845 104.96 116.747C104.074 117.16 103.132 117.441 102.165 117.579Z" fill="white"/>
<path d="M103.098 123.782C102.97 123.79 102.842 123.793 102.714 123.793C102.675 123.795 102.634 123.795 102.595 123.795C100.981 123.795 99.3904 123.406 97.9595 122.659C96.5286 121.913 95.2997 120.832 94.3775 119.509C94.3032 119.618 94.229 119.727 94.1566 119.838C95.1178 121.177 96.3847 122.268 97.8521 123.021C99.3196 123.773 100.946 124.166 102.595 124.166C102.647 124.166 102.699 124.166 102.751 124.164C102.881 124.162 103.009 124.159 103.137 124.153C105.119 124.052 107.029 123.382 108.64 122.226C108.58 122.116 108.521 122.007 108.46 121.897C106.894 123.033 105.031 123.688 103.098 123.782Z" fill="white"/>
<path d="M103.402 128.951C103.273 128.962 103.143 128.97 103.013 128.975C102.874 128.981 102.734 128.985 102.595 128.985C100.426 128.982 98.3158 128.278 96.5808 126.978C94.8458 125.677 93.5792 123.851 92.9707 121.771C92.8872 121.921 92.8037 122.07 92.7239 122.22C93.4095 124.294 94.7323 126.1 96.5044 127.381C98.2764 128.662 100.408 129.353 102.595 129.355C102.734 129.355 102.874 129.353 103.011 129.346C103.143 129.342 103.273 129.335 103.402 129.326C106.026 129.121 108.474 127.927 110.251 125.988C110.212 125.851 110.167 125.715 110.123 125.578C108.407 127.532 105.997 128.742 103.402 128.951Z" fill="white"/>
<path d="M24.3617 49.4024C37.8163 49.4024 48.7234 38.5101 48.7234 25.0738C48.7234 11.6374 37.8163 0.745117 24.3617 0.745117C10.9071 0.745117 0 11.6374 0 25.0738C0 38.5101 10.9071 49.4024 24.3617 49.4024Z" fill="#E4E4E4"/>
<path d="M24.3617 45.3475C35.5739 45.3475 44.6631 36.2706 44.6631 25.0737C44.6631 13.8767 35.5739 4.7998 24.3617 4.7998C13.1496 4.7998 4.0603 13.8767 4.0603 25.0737C4.0603 36.2706 13.1496 45.3475 24.3617 45.3475Z" fill="#98197F"/>
<path d="M89.0555 49.4024C102.51 49.4024 113.417 38.5101 113.417 25.0738C113.417 11.6374 102.51 0.745117 89.0555 0.745117C75.601 0.745117 64.6938 11.6374 64.6938 25.0738C64.6938 38.5101 75.601 49.4024 89.0555 49.4024Z" fill="#E4E4E4"/>
<path d="M89.0556 45.3475C100.268 45.3475 109.357 36.2706 109.357 25.0737C109.357 13.8767 100.268 4.7998 89.0556 4.7998C77.8434 4.7998 68.7542 13.8767 68.7542 25.0737C68.7542 36.2706 77.8434 45.3475 89.0556 45.3475Z" fill="white"/>
<path d="M153.749 49.4024C167.204 49.4024 178.111 38.5101 178.111 25.0738C178.111 11.6374 167.204 0.745117 153.749 0.745117C140.295 0.745117 129.388 11.6374 129.388 25.0738C129.388 38.5101 140.295 49.4024 153.749 49.4024Z" fill="#E4E4E4"/>
<path d="M153.749 45.3475C164.962 45.3475 174.051 36.2706 174.051 25.0737C174.051 13.8767 164.962 4.7998 153.749 4.7998C142.537 4.7998 133.448 13.8767 133.448 25.0737C133.448 36.2706 142.537 45.3475 153.749 45.3475Z" fill="white"/>
<path d="M22.6367 32.4053C22.6004 32.4053 22.564 32.4044 22.5276 32.4026C22.2066 32.3872 21.8926 32.3025 21.6074 32.1545C21.3222 32.0065 21.0723 31.7987 20.8751 31.5452L17.761 27.5467C17.3983 27.08 17.2359 26.4888 17.3092 25.9027C17.3826 25.3166 17.6857 24.7834 18.1522 24.4202L18.2642 24.3331C18.7316 23.971 19.3236 23.8088 19.9106 23.8821C20.4975 23.9553 21.0314 24.258 21.3952 24.7238C21.5707 24.9492 21.7929 25.134 22.0466 25.2657C22.3002 25.3973 22.5794 25.4727 22.865 25.4866C23.1505 25.5005 23.4357 25.4526 23.701 25.3462C23.9663 25.2399 24.2055 25.0775 24.4021 24.8702L30.7254 18.2044C30.9269 17.992 31.1683 17.8213 31.4359 17.702C31.7035 17.5828 31.9919 17.5174 32.2848 17.5095C32.5777 17.5016 32.8693 17.5514 33.1429 17.656C33.4165 17.7607 33.6668 17.9181 33.8795 18.1194L33.9827 18.217C34.4123 18.6234 34.6625 19.1836 34.6785 19.7742C34.6945 20.3649 34.4748 20.9377 34.0679 21.3666L24.2558 31.7095C24.0475 31.9293 23.7964 32.1044 23.518 32.224C23.2396 32.3437 22.9397 32.4053 22.6367 32.4053Z" fill="white"/>
<path d="M78.3633 20.1476H62.3284V6.22117C62.3449 5.35888 62.7031 4.53829 63.3244 3.93931C63.9458 3.34033 64.7796 3.01183 65.6432 3.02582H70.9732C75.0481 3.02582 78.3633 6.22152 78.3633 10.1496V20.1476Z" fill="#2F2E41"/>
<path d="M84.2999 136.683L81.2559 136.683L79.8076 124.958L84.3004 124.958L84.2999 136.683Z" fill="#FFB6B6"/>
<path d="M85.0762 139.63L75.2609 139.63V139.506C75.2609 138.494 75.6635 137.524 76.3799 136.808C77.0964 136.093 78.0681 135.691 79.0813 135.691L85.0764 135.691L85.0762 139.63Z" fill="#2F2E41"/>
<path d="M56.2424 136.683L53.1982 136.683L51.7501 124.958L56.2429 124.958L56.2424 136.683Z" fill="#FFB6B6"/>
<path d="M57.0187 139.63L47.2034 139.63V139.506C47.2034 138.494 47.606 137.524 48.3224 136.808C49.0389 136.093 50.0106 135.691 51.0238 135.691L57.0189 135.691L57.0187 139.63Z" fill="#2F2E41"/>
<path d="M59.9179 42.4836L57.9315 55.1296L76.8019 55.3774L74.319 43.2276L59.9179 42.4836Z" fill="#FFB6B6"/>
<path d="M58.4791 52.0419L52.4689 68.0235L51.724 134.254H56.8141L68.9806 81.0414L80.1539 132.865H85.1198L81.6437 74.5944C81.6437 74.5944 82.6688 62.8989 77.4227 55.9975L76.1457 52.3133L58.4791 52.0419Z" fill="#2F2E41"/>
<path d="M84.2593 64.5004C83.7339 64.3574 83.2463 64.1011 82.8308 63.7496C82.4153 63.398 82.082 62.9598 81.8545 62.4657C81.6269 61.9716 81.5106 61.4337 81.5138 60.8899C81.5169 60.346 81.6394 59.8095 81.8727 59.3181L73.8448 33.181L79.7496 32.0121L87.0918 57.6319C87.8925 58.0779 88.5016 58.8017 88.8037 59.6663C89.1057 60.5308 89.0796 61.4759 88.7305 62.3225C88.3814 63.1692 87.7334 63.8585 86.9093 64.2599C86.0852 64.6613 85.1424 64.7469 84.2593 64.5004Z" fill="#FFB6B6"/>
<path d="M73.6354 49.4676L60.6275 49.2168C60.2557 49.2089 59.8968 49.0796 59.6057 48.8485C59.3145 48.6174 59.1073 48.2974 59.0156 47.9375C58.3183 45.1803 56.784 37.9947 57.5978 30.8378C57.7584 29.4514 58.1959 28.1112 58.8842 26.8966C59.5726 25.6819 60.4979 24.6175 61.6055 23.7662C62.713 22.915 63.9803 22.2942 65.3323 21.9407C66.6843 21.5871 68.0935 21.5079 69.4767 21.7078C70.9358 21.9164 72.3342 22.4308 73.5803 23.2171C74.8263 24.0034 75.8918 25.0439 76.7069 26.2704C77.5219 27.4969 78.0681 28.8816 78.3095 30.3337C78.551 31.7857 78.4823 33.2724 78.1079 34.6961C76.4705 40.9058 75.5456 45.3482 75.359 47.9004C75.3313 48.2694 75.1835 48.6192 74.9381 48.8965C74.6926 49.1737 74.3631 49.3631 73.9997 49.4357C73.8917 49.4571 73.7818 49.4679 73.6716 49.468C73.6595 49.468 73.6475 49.4679 73.6354 49.4676Z" fill="#E4E4E4"/>
<path d="M34.1228 26.5092C34.201 26.6842 34.2652 26.8651 34.3148 27.0502L50.597 32.5755L53.7432 29.8307L58.5119 34.0311L53.415 39.4307C53.0032 39.867 52.4609 40.158 51.8694 40.2602C51.2779 40.3624 50.6691 40.2703 50.1345 39.9976L32.7116 31.11C32.0815 31.496 31.3487 31.6812 30.6106 31.6411C29.8726 31.601 29.1642 31.3375 28.5798 30.8856C27.9954 30.4336 27.5626 29.8147 27.339 29.1111C27.1154 28.4076 27.1116 27.6527 27.3281 26.9469C27.5446 26.2411 27.9711 25.6179 28.5509 25.1601C29.1308 24.7023 29.8364 24.4316 30.5741 24.3841C31.3117 24.3366 32.0463 24.5145 32.6802 24.8941C33.3142 25.2737 33.8173 25.8371 34.1228 26.5092Z" fill="#FFB6B6"/>
<path d="M50.6309 31.6943C50.6322 31.4704 50.6818 31.2493 50.7764 31.0463C50.871 30.8433 51.0083 30.663 51.1791 30.5179L57.1409 25.4464C57.8953 24.583 58.9619 24.0536 60.1066 23.9745C61.2513 23.8953 62.3808 24.2727 63.2472 25.024C64.1137 25.7753 64.6464 26.8391 64.7285 27.9821C64.8106 29.125 64.4354 30.2539 63.6853 31.121L59.4397 37.7231C59.3185 37.9116 59.1581 38.0717 58.9694 38.1926C58.7807 38.3135 58.568 38.3924 58.346 38.4238C58.124 38.4553 57.8978 38.4386 57.6829 38.3749C57.4679 38.3112 57.2692 38.202 57.1003 38.0547L51.1648 32.8775C50.9958 32.7302 50.8606 32.5483 50.7685 32.3441C50.6763 32.1399 50.6294 31.9182 50.6309 31.6943Z" fill="#E4E4E4"/>
<path d="M73.4852 39.8016C73.2867 39.6973 73.1131 39.5516 72.9762 39.3742C72.8393 39.1969 72.7423 38.9921 72.6919 38.7739L70.9292 31.1536C70.5094 30.0873 70.5301 28.8983 70.9869 27.8472C71.4436 26.7961 72.2991 25.9689 73.3658 25.5468C74.4325 25.1247 75.6232 25.1423 76.6769 25.5956C77.7306 26.049 78.5612 26.9012 78.9867 27.9652L82.9003 34.7689C83.012 34.9631 83.0804 35.179 83.101 35.402C83.1216 35.625 83.0938 35.8498 83.0195 36.0611C82.9453 36.2724 82.8263 36.4652 82.6707 36.6264C82.5151 36.7876 82.3265 36.9135 82.1178 36.9954L74.7827 39.8731C74.574 39.9551 74.35 39.9912 74.1261 39.9788C73.9022 39.9665 73.6835 39.906 73.4852 39.8016Z" fill="#E4E4E4"/>
<path d="M79.7955 4.38663C80.3977 2.97857 79.362 1.187 77.482 0.385039C75.6021 -0.416923 73.5898 0.0744051 72.9875 1.48246C72.3852 2.89052 73.421 4.6821 75.3009 5.48406C77.1809 6.28603 79.1932 5.79468 79.7955 4.38663Z" fill="#2F2E41"/>
<path d="M73.9635 14.8528C75.9746 11.1788 74.6225 6.57225 70.9435 4.56384C67.2645 2.55542 62.6517 3.90569 60.6405 7.57973C58.6294 11.2538 59.9815 15.8603 63.6605 17.8687C67.3395 19.8771 71.9523 18.5269 73.9635 14.8528Z" fill="#FFB6B6"/>
<path d="M71.4667 2.53305H62.783C62.1464 2.52482 61.5301 2.75726 61.0579 3.18374C60.5857 3.61023 60.2925 4.19922 60.2369 4.83261C60.2144 5.1692 60.2614 5.50682 60.375 5.82453C60.4885 6.14224 60.6662 6.43328 60.897 6.67962C61.1277 6.92596 61.4067 7.12235 61.7166 7.25662C62.0265 7.39088 62.3607 7.46017 62.6985 7.46018C63.3528 7.46018 63.9802 7.71973 64.4429 8.18174C64.9055 8.64375 65.1654 9.27037 65.1654 9.92374V20.0244H78.7334V9.78989C78.7334 8.83691 78.5455 7.89326 78.1803 7.01281C77.8151 6.13237 77.2798 5.33239 76.6051 4.65853C75.9303 3.98467 75.1292 3.45013 74.2476 3.08544C73.3659 2.72075 72.421 2.53305 71.4667 2.53305Z" fill="#2F2E41"/>
<path d="M114.273 140H20.284C20.2186 140 20.1559 139.974 20.1096 139.928C20.0633 139.882 20.0374 139.819 20.0374 139.754C20.0374 139.688 20.0633 139.626 20.1096 139.579C20.1559 139.533 20.2186 139.507 20.284 139.507H114.273C114.339 139.507 114.402 139.533 114.448 139.579C114.494 139.626 114.52 139.688 114.52 139.754C114.52 139.819 114.494 139.882 114.448 139.928C114.402 139.974 114.339 140 114.273 140Z" fill="#CACACA"/>
</g>
<defs>
<clipPath id="clip0_1_1504">
<rect width="178.111" height="140" fill="white"/>
</clipPath>
</defs>
</svg>
