<svg width="24" height="24" viewBox="0 0 24 24" fill="none" xmlns="http://www.w3.org/2000/svg">
<g clip-path="url(#clip0_1_2059)">
<path d="M12 19.5135C13.9564 17.7622 15.4535 16.0824 16.4913 14.474C17.5291 12.8657 18.048 11.457 18.048 10.2481C18.048 8.42498 17.4689 6.92627 16.3105 5.7519C15.1522 4.57753 13.7153 3.99035 12 3.99035C10.2846 3.99035 8.84771 4.57753 7.68938 5.7519C6.53105 6.92627 5.95188 8.42498 5.95188 10.2481C5.95188 11.457 6.47079 12.8657 7.5086 14.474C8.54644 16.0824 10.0436 17.7622 12 19.5135ZM12 20.9403C11.8051 20.9403 11.6102 20.9067 11.4154 20.8394C11.2205 20.7721 11.0442 20.6679 10.8865 20.5269C9.98909 19.7 9.14935 18.8484 8.3673 17.9721C7.58525 17.0958 6.90545 16.2199 6.32788 15.3442C5.75031 14.4686 5.29326 13.6006 4.95673 12.7404C4.62018 11.8801 4.4519 11.0493 4.4519 10.2481C4.4519 7.94038 5.19838 6.07213 6.69133 4.64328C8.18426 3.21443 9.9538 2.5 12 2.5C14.0461 2.5 15.8156 3.21443 17.3086 4.64328C18.8015 6.07213 19.548 7.94038 19.548 10.2481C19.548 11.0493 19.3797 11.8785 19.0432 12.7356C18.7066 13.5926 18.2512 14.4606 17.6768 15.3394C17.1025 16.2183 16.4243 17.0942 15.6422 17.9673C14.8602 18.8404 14.0204 19.6903 13.123 20.5173C12.9676 20.6583 12.791 20.7641 12.5933 20.8346C12.3955 20.9051 12.1977 20.9403 12 20.9403ZM12.0017 11.8654C12.4992 11.8654 12.9246 11.6882 13.2778 11.3339C13.631 10.9795 13.8076 10.5536 13.8076 10.056C13.8076 9.55839 13.6305 9.133 13.2761 8.7798C12.9218 8.4266 12.4958 8.25 11.9983 8.25C11.5007 8.25 11.0753 8.42717 10.7221 8.7815C10.3689 9.13583 10.1923 9.56179 10.1923 10.0594C10.1923 10.557 10.3694 10.9824 10.7238 11.3356C11.0781 11.6888 11.5041 11.8654 12.0017 11.8654Z" fill="#2D3748"/>
</g>
<defs>
<clipPath id="clip0_1_2059">
<rect width="24" height="24" rx="12" fill="white"/>
</clipPath>
</defs>
</svg>
