<svg width="260" height="260" viewBox="0 0 260 260" fill="none" xmlns="http://www.w3.org/2000/svg">
<g filter="url(#filter0_d_1_140)">
<path d="M200.089 49.2864C214.213 68.8832 216.807 93.9555 218.248 117.299C219.978 140.642 220.266 161.68 211.907 180.124C203.836 198.568 187.118 213.842 166.941 221.623C147.053 229.404 123.705 229.692 99.4926 224.505C75.2802 219.317 49.6266 208.654 40.4029 190.21C31.1791 171.478 38.3852 144.965 41.5559 115.858C45.0148 87.039 44.4383 55.9147 59.4269 36.6061C74.4155 17.2975 104.969 9.51643 132.929 12.6865C160.888 15.8566 186.254 29.6896 200.089 49.2864Z" fill="url(#paint0_linear_1_140)"/>
</g>
<path d="M147.572 96H142.428C142.321 96.0005 142.218 95.9456 142.139 95.8462C142.059 95.7468 142.01 95.61 142 95.4627L142.216 86.9745C142.23 86.4323 142.674 86 143.216 86H146.784C147.326 86 147.77 86.4323 147.784 86.9745L148 95.4625C147.99 95.6099 147.941 95.7467 147.861 95.8462C147.782 95.9456 147.679 96.0005 147.572 96Z" fill="#2F2E41"/>
<path d="M104.933 89.1897H90.4005V84.7815C94.9927 81.5882 99.0615 81.8658 104.414 85.0408L104.933 89.1897Z" fill="#F3B815"/>
<path d="M87.0352 167.488L83.8536 167.488L83.3779 155.226L87.0358 155.226L87.0352 167.488Z" fill="#FFB8B8"/>
<path d="M87.8465 170.57L77.5878 170.569V170.44C77.5878 169.916 77.6911 169.397 77.8918 168.913C78.0924 168.429 78.3865 167.989 78.7573 167.618C79.1281 167.248 79.5683 166.954 80.0527 166.754C80.5372 166.553 81.0564 166.45 81.5808 166.45L87.8467 166.45L87.8465 170.57Z" fill="#2F2E41"/>
<path d="M104.955 167.488L108.137 167.488L108.613 155.226L104.955 155.226L104.955 167.488Z" fill="#FFB8B8"/>
<path d="M104.144 166.45L110.41 166.45C110.934 166.45 111.453 166.553 111.938 166.754C112.422 166.954 112.862 167.248 113.233 167.618C113.604 167.989 113.898 168.429 114.099 168.913C114.299 169.397 114.403 169.916 114.403 170.44V170.569L104.144 170.57L104.144 166.45Z" fill="#2F2E41"/>
<path d="M105.039 165.917C104.774 165.916 104.516 165.825 104.309 165.659C104.102 165.493 103.957 165.262 103.899 165.003L96.013 130.635C95.9957 130.548 95.9481 130.47 95.8786 130.414C95.8091 130.358 95.7222 130.329 95.6331 130.331H95.6311C95.5417 130.329 95.4546 130.359 95.3852 130.416C95.3159 130.472 95.2687 130.551 95.2522 130.639L88.0106 164.775C87.9541 165.037 87.8101 165.271 87.6023 165.439C87.3946 165.607 87.1355 165.699 86.8682 165.7H83.4185C83.2594 165.7 83.1019 165.668 82.9558 165.605C82.8096 165.542 82.6779 165.449 82.5688 165.334C82.4596 165.218 82.3752 165.081 82.3209 164.932C82.2666 164.782 82.2434 164.623 82.2528 164.464L84.8222 121.198L85.8561 120.893L85.8755 120.893L106.184 121.07L110.51 164.289C110.525 164.443 110.509 164.599 110.463 164.747C110.418 164.895 110.343 165.032 110.243 165.151C110.144 165.27 110.022 165.368 109.884 165.439C109.747 165.51 109.596 165.553 109.442 165.565L105.133 165.913C105.101 165.915 105.07 165.917 105.039 165.917Z" fill="#2F2E41"/>
<path d="M96.6523 81.2893C100.172 81.2893 103.026 78.4379 103.026 74.9205C103.026 71.4032 100.172 68.5518 96.6523 68.5518C93.1321 68.5518 90.2784 71.4032 90.2784 74.9205C90.2784 78.4379 93.1321 81.2893 96.6523 81.2893Z" fill="#FFB8B8"/>
<path d="M92.7476 125.942C91.6294 125.956 90.5156 125.799 89.4446 125.477C88.4921 125.19 87.6084 124.712 86.848 124.071C86.0876 123.43 85.4665 122.64 85.023 121.75C84.8825 121.482 84.8513 121.17 84.9361 120.88C85.639 118.483 89.036 106.022 86.8686 96.1158C86.5627 94.7397 86.5373 93.3161 86.7939 91.93C87.0505 90.5438 87.5838 89.2235 88.3621 88.0478C89.1223 86.8813 90.1099 85.8797 91.2659 85.1028C92.4219 84.3259 93.7226 83.7896 95.0905 83.5259L95.0906 83.5257C95.4501 83.4555 95.8115 83.398 96.1647 83.3545C97.6768 83.1685 99.2114 83.3188 100.659 83.7945C102.106 84.2703 103.43 85.0598 104.536 86.1065C105.675 87.1738 106.564 88.4795 107.139 89.9302C107.714 91.3808 107.961 92.9406 107.862 94.4977L106.196 121.207C106.185 121.407 106.121 121.601 106.012 121.769C105.903 121.938 105.752 122.075 105.574 122.167C103.655 123.172 97.8923 125.942 92.7476 125.942Z" fill="#3F3D56"/>
<path d="M103.853 70.2325C103.191 68.5699 101.978 67.1844 100.417 66.3074C98.8558 65.4305 97.0409 65.115 95.2752 65.4137L97.2848 67.0363C94.7879 67.1204 92.1596 66.9417 90.3768 68.6905C90.9444 68.6748 91.6882 69.8878 92.2558 69.8721C91.1947 69.8931 90.2325 70.638 89.7638 71.5895C89.3297 72.567 89.2281 73.6597 89.4747 74.7004C89.6843 75.74 91.283 78.1755 91.7133 79.1449C91.6393 76.6115 96.6309 70.5686 99.0684 71.1992C97.83 71.6583 96.7554 72.4736 95.98 73.5421C97.6383 72.7059 99.5137 72.3993 101.352 72.6638C101.772 72.76 102.205 72.7842 102.633 72.7355C102.895 72.6836 103.14 72.5655 103.343 72.3923C103.547 72.2191 103.702 71.9967 103.795 71.7462C103.888 71.4958 103.916 71.2257 103.874 70.9618C103.833 70.6979 103.725 70.4489 103.56 70.2387L103.853 70.2325Z" fill="#2F2E41"/>
<path d="M92.3085 124.338C92.1475 124.338 91.9883 124.304 91.8409 124.239L79.7475 118.965C79.4906 118.855 79.2821 118.656 79.1604 118.405C79.0386 118.153 79.0118 117.866 79.0849 117.597L87.0908 87.3778C87.2396 86.8155 87.4992 86.2886 87.8544 85.8278C88.2095 85.3669 88.6531 84.9815 89.1592 84.6941C89.6652 84.4067 90.2236 84.223 90.8015 84.1538C91.3795 84.0847 91.9655 84.1314 92.5251 84.2913L95.7263 85.2041L93.4728 123.239C93.4612 123.427 93.4045 123.609 93.3076 123.77C93.2107 123.931 93.0763 124.066 92.9159 124.165C92.7334 124.278 92.5231 124.338 92.3085 124.338Z" fill="#F3B815"/>
<path d="M114.691 117.596L114.159 115.592L113.388 112.677L113.017 111.28L112.246 108.373L106.685 87.3772C106.536 86.8146 106.277 86.2874 105.922 85.8263C105.567 85.3653 105.123 84.9797 104.617 84.6923C104.111 84.4049 103.553 84.2214 102.974 84.1525C102.396 84.0837 101.81 84.1309 101.251 84.2914L98.0508 85.2042L99.6364 111.957L99.8 114.749L99.9038 116.51V116.513L100.07 119.29L100.303 123.239C100.323 123.535 100.453 123.814 100.67 124.018C100.886 124.222 101.171 124.336 101.469 124.338C101.629 124.337 101.788 124.304 101.936 124.24L114.029 118.966C114.286 118.855 114.495 118.656 114.616 118.405C114.738 118.153 114.764 117.866 114.691 117.596Z" fill="#F3B815"/>
<path d="M113.017 111.28L99.8001 114.749L99.6364 111.957L112.246 108.373L113.017 111.28Z" fill="#CCCCCC"/>
<path d="M114.159 115.592L100.07 119.29L99.9039 116.513V116.51L113.388 112.677L114.159 115.592Z" fill="#CCCCCC"/>
<path d="M93.9766 112.558L93.8129 115.299L80.8505 111.44L81.6106 108.573L93.9766 112.558Z" fill="#CCCCCC"/>
<path d="M93.7065 117.104L80.4792 112.838L79.7188 115.714L93.5456 119.829L93.7065 117.104Z" fill="#CCCCCC"/>
<path d="M80.7099 119.97C81.1042 119.867 81.4712 119.679 81.785 119.419C82.0988 119.159 82.3517 118.834 82.526 118.466C82.7003 118.098 82.7916 117.696 82.7937 117.289C82.7957 116.881 82.7083 116.479 82.5378 116.109L88.7562 96.6024L84.3467 95.6797L78.6455 114.804C78.0427 115.132 77.581 115.669 77.348 116.314C77.1151 116.959 77.1269 117.666 77.3814 118.303C77.6358 118.94 78.1152 119.461 78.7287 119.769C79.3421 120.076 80.0471 120.147 80.7099 119.97Z" fill="#FFB8B8"/>
<path d="M88.9288 87.0131C90.195 87.1422 90.9072 88.5647 90.5924 90.3359L89.0817 98.8354C88.9685 99.4726 88.4437 99.977 88.0075 99.8681L82.8976 98.5918C82.5044 98.4936 82.3596 97.9354 82.5824 97.3769L85.65 89.6876C86.3162 88.0178 87.7013 86.888 88.9288 87.0131Z" fill="#3F3D56"/>
<path d="M96.6287 63C98.7859 63.0002 100.858 63.8394 102.407 65.3398C103.956 66.8402 104.86 68.884 104.927 71.0384H106.49C106.628 71.0384 106.76 71.0931 106.857 71.1903C106.955 71.2876 107.009 71.4195 107.009 71.557V73.6315C107.009 73.769 106.955 73.9009 106.857 73.9982C106.76 74.0954 106.628 74.1501 106.49 74.1501H88.8434C88.7057 74.1501 88.5737 74.0954 88.4764 73.9982C88.379 73.9009 88.3243 73.769 88.3243 73.6315V71.2977C88.3243 70.208 88.5391 69.129 88.9565 68.1223C89.3738 67.1156 89.9855 66.2008 90.7566 65.4303C91.5278 64.6598 92.4432 64.0486 93.4508 63.6316C94.4583 63.2146 95.5382 63 96.6287 63Z" fill="#F3B815"/>
<path d="M97.6211 114.292H93.9527C93.835 114.292 93.7214 114.248 93.6342 114.169C93.547 114.09 93.4926 113.982 93.4815 113.865L92.7472 106.344H98.8266L98.0923 113.864C98.0812 113.982 98.0268 114.09 97.9396 114.169C97.8524 114.248 97.7388 114.292 97.6211 114.292Z" fill="#E6E6E6"/>
<path d="M98.8168 107.29H92.7569C92.6314 107.29 92.511 107.24 92.4223 107.152C92.3335 107.063 92.2836 106.943 92.2834 106.817V105.682C92.2836 105.557 92.3335 105.436 92.4223 105.348C92.511 105.259 92.6314 105.209 92.7569 105.209H98.8168C98.9423 105.209 99.0627 105.259 99.1514 105.348C99.2402 105.436 99.2901 105.557 99.2903 105.682V106.817C99.2901 106.943 99.2402 107.063 99.1514 107.152C99.0627 107.24 98.9423 107.29 98.8168 107.29Z" fill="#CCCCCC"/>
<path d="M95.8656 110.259C96.0082 110.275 96.1494 110.303 96.2877 110.341L106.057 101.97L105.486 98.8984L110.013 97.4314L111.553 102.771C111.677 103.202 111.658 103.662 111.498 104.082C111.339 104.501 111.047 104.858 110.668 105.098L98.2949 112.921C98.3037 113.474 98.1439 114.016 97.8367 114.476C97.5295 114.936 97.0896 115.291 96.5753 115.495C96.0611 115.699 95.497 115.741 94.958 115.617C94.419 115.492 93.9307 115.207 93.558 114.798C93.1853 114.39 92.9459 113.878 92.8717 113.33C92.7974 112.782 92.8919 112.225 93.1424 111.732C93.3929 111.239 93.7876 110.834 94.274 110.571C94.7605 110.308 95.3156 110.199 95.8656 110.259Z" fill="#FFB8B8"/>
<path d="M106.083 87.715C107.435 87.3367 108.787 88.3653 109.239 90.1177L111.412 98.5269C111.575 99.1573 111.259 99.8272 110.765 99.8982L104.976 100.73C104.53 100.794 104.138 100.338 104.122 99.7367L103.897 91.4615C103.848 89.6644 104.771 88.0818 106.083 87.715Z" fill="#3F3D56"/>
<path d="M183.893 141.432C181.228 137.889 179.121 133.96 177.645 129.781C177.56 129.531 177.566 129.259 177.662 129.013C177.759 128.767 177.94 128.563 178.172 128.438L187.293 123.555C187.44 123.475 187.604 123.43 187.772 123.423C187.939 123.416 188.106 123.448 188.26 123.515C188.416 123.583 188.555 123.686 188.666 123.815C188.776 123.945 188.856 124.098 188.898 124.263C189.96 128.291 191.956 132.012 194.723 135.126C194.837 135.252 194.921 135.403 194.968 135.567C195.014 135.731 195.023 135.903 194.993 136.071C194.964 136.236 194.898 136.392 194.799 136.528C194.701 136.664 194.573 136.775 194.425 136.854L185.304 141.737C185.071 141.861 184.801 141.899 184.542 141.843C184.284 141.787 184.054 141.641 183.893 141.432Z" fill="#CCCCCC"/>
<path d="M184.515 140.964C184.564 141.026 184.633 141.068 184.71 141.084C184.787 141.099 184.867 141.088 184.936 141.051L194.057 136.168C194.101 136.145 194.14 136.112 194.169 136.072C194.198 136.031 194.218 135.985 194.226 135.935C194.236 135.883 194.233 135.83 194.218 135.779C194.204 135.729 194.178 135.682 194.142 135.643C191.292 132.437 189.238 128.607 188.145 124.46C188.133 124.409 188.108 124.362 188.074 124.321C188.04 124.281 187.997 124.249 187.949 124.228C187.903 124.208 187.853 124.198 187.803 124.2C187.753 124.203 187.704 124.216 187.661 124.24L178.54 129.123C178.471 129.161 178.417 129.221 178.388 129.294C178.358 129.366 178.355 129.447 178.379 129.522C179.828 133.627 181.898 137.485 184.515 140.964Z" fill="white"/>
<path d="M187.892 130.523L182.924 132.714C182.735 132.797 182.521 132.802 182.329 132.728C182.136 132.653 181.981 132.505 181.898 132.317L181.775 132.039C181.692 131.85 181.687 131.636 181.761 131.444C181.836 131.251 181.984 131.096 182.173 131.013L187.14 128.822C187.329 128.739 187.543 128.734 187.736 128.808C187.928 128.883 188.083 129.031 188.167 129.219L188.29 129.497C188.373 129.686 188.377 129.9 188.303 130.093C188.228 130.285 188.08 130.44 187.892 130.523Z" fill="#CCCCCC"/>
<path d="M189.708 133.894L184.741 136.085C184.552 136.168 184.338 136.173 184.145 136.098C183.953 136.024 183.798 135.876 183.714 135.688L183.591 135.409C183.508 135.221 183.503 135.007 183.578 134.814C183.653 134.622 183.8 134.467 183.989 134.384L188.957 132.193C189.146 132.11 189.36 132.105 189.552 132.179C189.745 132.254 189.9 132.402 189.983 132.59L190.106 132.868C190.189 133.057 190.194 133.271 190.119 133.463C190.045 133.656 189.897 133.811 189.708 133.894Z" fill="#CCCCCC"/>
<path d="M178.058 131.085C177.715 130.865 177.425 130.572 177.208 130.228C176.99 129.883 176.851 129.495 176.8 129.091C176.749 128.687 176.787 128.277 176.912 127.889C177.037 127.501 177.246 127.146 177.523 126.847L175.428 97.1421L181.462 97.7268L181.628 126.817C182.099 127.316 182.371 127.97 182.391 128.655C182.412 129.341 182.18 130.01 181.74 130.536C181.3 131.062 180.682 131.408 180.004 131.51C179.325 131.611 178.633 131.46 178.058 131.085Z" fill="#A0616A"/>
<path d="M176.794 107.124C176.653 107.022 176.536 106.89 176.452 106.737C176.369 106.585 176.321 106.415 176.311 106.242L175.869 98.2355C175.826 97.4423 176.077 96.6609 176.576 96.0422C177.075 95.4234 177.785 95.011 178.57 94.8845C179.355 94.758 180.159 94.9264 180.827 95.3571C181.495 95.7879 181.979 96.4505 182.188 97.2172L184.13 104.375C184.211 104.674 184.169 104.992 184.015 105.261C183.861 105.529 183.607 105.726 183.308 105.807L177.783 107.304C177.615 107.349 177.439 107.357 177.268 107.326C177.097 107.295 176.935 107.226 176.794 107.124Z" fill="#F3B815"/>
<path d="M166.509 167.605H163.327L161.814 155.343H166.509L166.509 167.605Z" fill="#A0616A"/>
<path d="M161.055 166.697H167.191V170.557H157.192C157.192 170.05 157.291 169.548 157.486 169.08C157.68 168.611 157.964 168.186 158.323 167.827C158.682 167.469 159.108 167.185 159.576 166.991C160.045 166.797 160.548 166.697 161.055 166.697Z" fill="#2F2E41"/>
<path d="M178.447 167.605H175.265L173.751 155.343H178.447L178.447 167.605Z" fill="#A0616A"/>
<path d="M172.992 166.697H179.128V170.557H169.129C169.129 170.05 169.229 169.548 169.423 169.08C169.617 168.611 169.902 168.186 170.261 167.827C170.619 167.469 171.045 167.185 171.514 166.991C171.983 166.797 172.485 166.697 172.992 166.697Z" fill="#2F2E41"/>
<path d="M166.359 161.428L162.856 161.261C162.558 161.247 162.276 161.119 162.069 160.904C161.862 160.689 161.746 160.402 161.744 160.104C160.821 145.863 159.542 130.593 161.5 124.694C161.498 124.526 161.534 124.36 161.603 124.207C161.672 124.053 161.773 123.917 161.9 123.806C162.027 123.696 162.176 123.614 162.337 123.567C162.499 123.519 162.669 123.507 162.835 123.531L176.847 125.564C177.124 125.602 177.378 125.739 177.561 125.95C177.745 126.161 177.846 126.43 177.847 126.71C179.636 133.694 179.717 146.36 179.649 159.52C179.65 159.674 179.621 159.827 179.563 159.97C179.505 160.112 179.419 160.242 179.31 160.351C179.202 160.46 179.073 160.547 178.93 160.606C178.788 160.666 178.636 160.696 178.481 160.696H174.706C174.427 160.697 174.157 160.598 173.946 160.417C173.734 160.237 173.594 159.986 173.552 159.711L171.222 144.913C171.188 144.696 171.077 144.499 170.909 144.358C170.741 144.218 170.528 144.142 170.308 144.146C170.089 144.15 169.879 144.233 169.716 144.38C169.553 144.527 169.449 144.728 169.423 144.946L167.574 160.401C167.539 160.684 167.402 160.945 167.188 161.134C166.975 161.324 166.7 161.429 166.414 161.429C166.396 161.429 166.377 161.429 166.359 161.428Z" fill="#2F2E41"/>
<path d="M168.824 126.711C165.736 124.997 163.323 124.546 162.16 124.43C162.005 124.415 161.855 124.369 161.719 124.295C161.583 124.22 161.463 124.119 161.368 123.996C161.27 123.873 161.198 123.732 161.156 123.58C161.115 123.429 161.104 123.27 161.126 123.114L164.483 98.2081C164.677 96.751 165.24 95.3676 166.12 94.1895C166.999 93.0113 168.166 92.0777 169.508 91.4774C170.808 90.8804 172.239 90.6256 173.665 90.7373C175.091 90.849 176.465 91.3234 177.656 92.1155C177.771 92.192 177.884 92.27 177.995 92.3497C179.366 93.3537 180.409 94.7407 180.993 96.3361C181.576 97.9315 181.674 99.6638 181.274 101.315C179.215 109.73 178.508 123.527 178.387 126.208C178.378 126.436 178.301 126.657 178.166 126.841C178.031 127.026 177.845 127.167 177.63 127.246C176.363 127.706 175.026 127.944 173.679 127.949C171.981 127.959 170.309 127.533 168.824 126.711Z" fill="#F3B815"/>
<path d="M171.633 88.0957C175.153 88.0957 178.006 85.2443 178.006 81.7269C178.006 78.2095 175.153 75.3582 171.633 75.3582C168.112 75.3582 165.259 78.2095 165.259 81.7269C165.259 85.2443 168.112 88.0957 171.633 88.0957Z" fill="#A0616A"/>
<path d="M176.143 86.7654C174.954 88.031 172.746 87.3516 172.591 85.6226C172.579 85.4884 172.58 85.3533 172.593 85.2192C172.673 84.4534 173.116 83.758 173.01 82.9494C172.986 82.7481 172.911 82.5563 172.792 82.3922C171.845 81.1243 169.62 82.9592 168.726 81.8115C168.178 81.1078 168.822 79.9997 168.402 79.2131C167.846 78.175 166.201 78.6871 165.17 78.1186C164.022 77.486 164.091 75.7264 164.846 74.6562C165.767 73.351 167.383 72.6545 168.978 72.5541C170.574 72.4537 172.158 72.8847 173.648 73.4646C175.34 74.1236 177.018 75.0343 178.059 76.5212C179.326 78.3294 179.448 80.7603 178.814 82.8746C178.429 84.1607 177.114 85.7319 176.143 86.7654Z" fill="#2F2E41"/>
<path d="M148.535 94.2395C148.567 94.3794 148.588 94.5216 148.597 94.6648L159.745 101.091L162.455 99.5322L165.344 103.311L159.547 107.439L146.829 97.4137C146.31 97.6055 145.745 97.635 145.209 97.4982C144.673 97.3614 144.192 97.0648 143.829 96.6479C143.466 96.231 143.238 95.7136 143.176 95.1643C143.115 94.6151 143.222 94.0602 143.484 93.5733C143.746 93.0865 144.149 92.6908 144.642 92.4389C145.134 92.1869 145.691 92.0907 146.24 92.163C146.788 92.2354 147.301 92.4728 147.711 92.8437C148.121 93.2146 148.409 93.7014 148.535 94.2395Z" fill="#A0616A"/>
<path d="M160.143 100.544C160.125 100.371 160.145 100.196 160.203 100.033C160.261 99.8686 160.356 99.7197 160.479 99.597L166.153 93.9264C166.715 93.3646 167.465 93.0307 168.259 92.989C169.053 92.9474 169.835 93.2009 170.453 93.7007C171.07 94.2006 171.481 94.9113 171.606 95.6959C171.731 96.4805 171.56 97.2834 171.127 97.9498L167.087 104.171C166.918 104.43 166.653 104.612 166.35 104.677C166.047 104.741 165.731 104.683 165.471 104.515L160.669 101.401C160.523 101.306 160.4 101.181 160.309 101.032C160.218 100.884 160.161 100.717 160.143 100.544Z" fill="#F3B815"/>
<path d="M68.057 151.956C66.4146 152.533 64.6511 152.677 62.9366 152.375C61.2221 152.074 59.6142 151.336 58.2679 150.233C54.8392 147.357 53.7643 142.62 52.8896 138.233L50.3024 125.259L55.7189 128.986C59.614 131.666 63.597 134.431 66.294 138.313C68.991 142.195 70.1682 147.494 68.0013 151.694" fill="#E6E6E6"/>
<path d="M67.594 167.664C68.1422 163.674 68.7059 159.633 68.3214 155.6C67.9798 152.018 66.8863 148.52 64.6599 145.652C63.4782 144.132 62.0403 142.83 60.4107 141.805C59.9858 141.537 59.5947 142.209 60.0178 142.476C62.8373 144.257 65.0181 146.886 66.2458 149.985C67.6017 153.431 67.8195 157.187 67.5858 160.848C67.4445 163.062 67.145 165.261 66.8432 167.457C66.8195 167.557 66.8343 167.661 66.8848 167.75C66.9352 167.839 67.0176 167.905 67.1151 167.936C67.2147 167.963 67.3208 167.949 67.4104 167.898C67.5 167.847 67.566 167.763 67.594 167.664Z" fill="#F2F2F2"/>
<path d="M62.3137 160.604C61.6093 161.673 60.641 162.544 59.5022 163.131C58.3634 163.718 57.0924 164.003 55.8117 163.957C52.5202 163.801 49.7762 161.505 47.3061 159.326L40 152.881L44.8354 152.649C48.3128 152.483 51.8799 152.328 55.1919 153.399C58.504 154.471 61.5586 157.05 62.1642 160.475" fill="#E6E6E6"/>
<path d="M69.1433 169.958C66.5047 165.292 63.4441 160.108 57.9753 158.451C56.4547 157.991 54.8602 157.827 53.2778 157.966C52.7791 158.009 52.9036 158.777 53.4015 158.734C56.0539 158.514 58.7013 159.214 60.8979 160.716C63.0116 162.153 64.6573 164.152 66.0502 166.271C66.9035 167.57 67.6677 168.923 68.4321 170.274C68.6764 170.706 69.3904 170.395 69.1433 169.958Z" fill="#F2F2F2"/>
<path d="M206.741 171H21.968C21.8992 171 21.8332 170.973 21.7845 170.924C21.7358 170.875 21.7085 170.81 21.7085 170.741C21.7085 170.672 21.7358 170.606 21.7845 170.557C21.8332 170.509 21.8992 170.481 21.968 170.481H206.741C206.809 170.481 206.875 170.509 206.924 170.557C206.973 170.606 207 170.672 207 170.741C207 170.81 206.973 170.875 206.924 170.924C206.875 170.973 206.809 171 206.741 171Z" fill="#CCCCCC"/>
<defs>
<filter id="filter0_d_1_140" x="19.8741" y="4" width="215.357" height="248" filterUnits="userSpaceOnUse" color-interpolation-filters="sRGB">
<feFlood flood-opacity="0" result="BackgroundImageFix"/>
<feColorMatrix in="SourceAlpha" type="matrix" values="0 0 0 0 0 0 0 0 0 0 0 0 0 0 0 0 0 0 127 0" result="hardAlpha"/>
<feOffset dy="8"/>
<feGaussianBlur stdDeviation="8"/>
<feComposite in2="hardAlpha" operator="out"/>
<feColorMatrix type="matrix" values="0 0 0 0 0 0 0 0 0 0 0 0 0 0 0 0 0 0 0.24 0"/>
<feBlend mode="normal" in2="BackgroundImageFix" result="effect1_dropShadow_1_140"/>
<feBlend mode="normal" in="SourceGraphic" in2="effect1_dropShadow_1_140" result="shape"/>
</filter>
<linearGradient id="paint0_linear_1_140" x1="35.8741" y1="228" x2="249.007" y2="47.0773" gradientUnits="userSpaceOnUse">
<stop stop-color="#98197F"/>
<stop offset="1" stop-color="#1981B4"/>
</linearGradient>
</defs>
</svg>
