<svg width="260" height="260" viewBox="0 0 260 260" fill="none" xmlns="http://www.w3.org/2000/svg">
<g filter="url(#filter0_d_1_211)">
<path d="M207.229 32.9421C224.595 44.3185 234.274 68.209 237.976 92.9526C241.961 117.412 240.253 142.724 231.143 167.752C221.748 192.781 204.666 218.093 183.314 221.506C161.962 225.203 136.34 207.285 108.724 196.478C80.8244 185.955 50.9315 182.257 34.4192 165.477C17.6223 148.697 14.4906 118.265 25.309 96.3656C36.1274 74.1816 60.8958 60.5299 82.2478 49.7223C103.885 39.1992 121.536 31.5201 143.172 27.2539C164.809 22.7034 189.862 21.5657 207.229 32.9421Z" fill="url(#paint0_linear_1_211)"/>
</g>
<g clip-path="url(#clip0_1_211)">
<path d="M182.505 77.0478C181.591 87.1392 178.986 97.7801 174.901 108.047C169.85 120.744 162.948 131.927 154.942 140.387L154.498 139.999C162.465 131.579 169.335 120.446 174.366 107.802C178.912 96.3755 181.616 84.4848 182.189 73.4204L182.757 73.5156C182.697 74.6842 182.613 75.8616 182.505 77.0478Z" fill="#F2F2F2"/>
<path d="M186.147 135.657C174.902 153.579 161.259 166.384 147.732 171.713L147.459 171.211C160.892 165.918 174.455 153.178 185.648 135.339L186.147 135.657Z" fill="#F2F2F2"/>
<path d="M182.232 89.612C181.318 99.7035 178.713 110.344 174.628 120.611C169.577 133.308 162.675 144.491 154.669 152.952L154.225 152.563C162.192 144.144 169.062 133.01 174.093 120.366C178.639 108.94 181.343 97.049 181.916 85.9846L182.484 86.0798C182.424 87.2484 182.34 88.4258 182.232 89.612Z" fill="#F2F2F2"/>
<path d="M55.9947 115.52H48.6167C48.4591 115.52 48.3034 115.485 48.1614 115.416C48.0194 115.348 47.8947 115.248 47.7967 115.124C47.6999 115.004 47.6316 114.863 47.5969 114.712C47.5623 114.561 47.5621 114.405 47.5965 114.254C48.2992 111.148 48.2551 107.919 47.4677 104.833C47.4179 104.63 47.43 104.417 47.5023 104.22C47.5746 104.024 47.704 103.854 47.8736 103.732C51.6674 100.999 54.6551 101.078 56.7538 103.968C56.8484 104.1 56.9113 104.252 56.9374 104.412C57.4982 107.789 57.5292 111.233 57.0294 114.62C56.9947 114.87 56.8707 115.099 56.6805 115.264C56.4902 115.43 56.2466 115.521 55.9947 115.52Z" fill="#E6E6E6"/>
<path d="M53.7073 108.118H51.1693C51.0289 108.118 50.8943 108.062 50.7951 107.963C50.6958 107.864 50.6401 107.729 50.6401 107.588C50.6401 107.448 50.6958 107.313 50.7951 107.213C50.8943 107.114 51.0289 107.058 51.1693 107.058H53.7073C53.8474 107.058 53.9818 107.114 54.0808 107.214C54.1798 107.313 54.2354 107.448 54.2354 107.588C54.2354 107.729 54.1798 107.863 54.0808 107.963C53.9818 108.062 53.8474 108.118 53.7073 108.118Z" fill="white"/>
<path d="M53.7073 109.977H51.1693C51.0289 109.977 50.8943 109.922 50.7951 109.822C50.6958 109.723 50.6401 109.588 50.6401 109.447C50.6401 109.307 50.6958 109.172 50.7951 109.073C50.8943 108.973 51.0289 108.917 51.1693 108.917H53.7073C53.8474 108.918 53.9818 108.974 54.0808 109.073C54.1798 109.172 54.2354 109.307 54.2354 109.447C54.2354 109.588 54.1798 109.722 54.0808 109.822C53.9818 109.921 53.8474 109.977 53.7073 109.977Z" fill="white"/>
<path d="M53.7073 111.837H51.1693C51.0289 111.837 50.8943 111.781 50.7951 111.681C50.6958 111.582 50.6401 111.447 50.6401 111.306C50.6401 111.166 50.6958 111.031 50.7951 110.932C50.8943 110.832 51.0289 110.776 51.1693 110.776H53.7073C53.8474 110.777 53.9818 110.833 54.0808 110.932C54.1798 111.031 54.2354 111.166 54.2354 111.306C54.2354 111.447 54.1798 111.582 54.0808 111.681C53.9818 111.78 53.8474 111.836 53.7073 111.837Z" fill="white"/>
<path d="M190.082 148.52H182.704C182.546 148.521 182.391 148.485 182.249 148.417C182.107 148.348 181.982 148.248 181.884 148.125C181.787 148.004 181.719 147.863 181.684 147.712C181.65 147.562 181.649 147.405 181.684 147.254C182.386 144.148 182.342 140.919 181.555 137.834C181.505 137.63 181.517 137.417 181.59 137.221C181.662 137.024 181.791 136.854 181.961 136.732C185.755 133.999 188.742 134.078 190.841 136.969C190.936 137.1 190.999 137.252 191.025 137.412C191.585 140.79 191.617 144.234 191.117 147.62C191.082 147.87 190.958 148.099 190.768 148.265C190.577 148.43 190.334 148.521 190.082 148.52Z" fill="#E6E6E6"/>
<path d="M187.795 141.119H185.257C185.116 141.118 184.982 141.062 184.883 140.963C184.784 140.864 184.728 140.729 184.728 140.588C184.728 140.448 184.784 140.313 184.883 140.214C184.982 140.115 185.116 140.059 185.257 140.058H187.795C187.935 140.058 188.07 140.114 188.169 140.214C188.268 140.313 188.324 140.448 188.324 140.588C188.324 140.729 188.268 140.864 188.169 140.963C188.07 141.063 187.935 141.119 187.795 141.119Z" fill="white"/>
<path d="M187.795 142.978H185.257C185.116 142.977 184.982 142.921 184.883 142.822C184.784 142.723 184.728 142.588 184.728 142.448C184.728 142.307 184.784 142.173 184.883 142.073C184.982 141.974 185.116 141.918 185.257 141.917H187.795C187.935 141.917 188.07 141.973 188.169 142.073C188.268 142.172 188.324 142.307 188.324 142.448C188.324 142.588 188.268 142.723 188.169 142.822C188.07 142.922 187.935 142.978 187.795 142.978Z" fill="white"/>
<path d="M187.795 144.837H185.257C185.116 144.837 184.982 144.781 184.883 144.681C184.784 144.582 184.728 144.447 184.728 144.307C184.728 144.167 184.784 144.032 184.883 143.933C184.982 143.833 185.116 143.777 185.257 143.777H187.795C187.935 143.777 188.07 143.833 188.169 143.932C188.268 144.032 188.324 144.166 188.324 144.307C188.324 144.448 188.268 144.582 188.169 144.682C188.07 144.781 187.935 144.837 187.795 144.837Z" fill="white"/>
<path d="M218 193.723C218 193.76 217.993 193.796 217.979 193.829C217.965 193.863 217.945 193.893 217.919 193.919C217.894 193.945 217.863 193.965 217.83 193.979C217.796 193.993 217.76 194 217.724 194H42.2761C42.2028 194 42.1326 193.971 42.0809 193.919C42.0291 193.867 42 193.797 42 193.723C42 193.65 42.0291 193.58 42.0809 193.528C42.1326 193.476 42.2028 193.447 42.2761 193.447H217.724C217.76 193.447 217.796 193.454 217.83 193.468C217.863 193.481 217.894 193.502 217.919 193.528C217.945 193.553 217.965 193.584 217.979 193.617C217.993 193.651 218 193.687 218 193.723Z" fill="#CCCCCC"/>
<path d="M88.2818 176.791L87.8216 170.379C84.8074 168.87 81.4708 168.12 78.1017 168.196C82.8416 171.866 82.4619 179.202 85.7445 184.222C86.7803 185.78 88.1528 187.084 89.7602 188.039C91.3676 188.993 93.1688 189.573 95.0303 189.735L98.975 192.008C99.4263 189.02 99.2256 185.97 98.3868 183.068C97.548 180.165 96.091 177.479 94.1163 175.195C92.9958 173.925 91.72 172.801 90.3192 171.85C89.4569 174.33 88.2818 176.791 88.2818 176.791Z" fill="#F2F2F2"/>
<path d="M171.718 177.721L172.178 171.309C175.193 169.8 178.529 169.05 181.898 169.126C177.158 172.796 177.538 180.131 174.255 185.152C173.22 186.709 171.847 188.014 170.24 188.968C168.632 189.923 166.831 190.502 164.97 190.664L161.025 192.938C160.574 189.95 160.774 186.9 161.613 183.997C162.452 181.095 163.909 178.409 165.884 176.125C167.004 174.854 168.28 173.73 169.681 172.779C170.543 175.259 171.718 177.721 171.718 177.721Z" fill="#F2F2F2"/>
<path d="M127.912 105.367C130.346 105.367 132.32 103.391 132.32 100.952C132.32 98.5133 130.346 96.5364 127.912 96.5364C125.478 96.5364 123.504 98.5133 123.504 100.952C123.504 103.391 125.478 105.367 127.912 105.367Z" fill="#F3B815"/>
<path d="M130.175 99.1117C130.109 99.0483 130.02 99.0129 129.929 99.0129C129.837 99.0129 129.749 99.0483 129.683 99.1117C128.747 99.8589 127.907 100.718 127.181 101.671C127.003 101.326 126.825 100.98 126.647 100.635C126.441 100.236 125.84 100.588 126.046 100.987C126.307 101.492 126.567 101.997 126.828 102.502C126.859 102.554 126.903 102.597 126.956 102.626C127.009 102.656 127.068 102.671 127.128 102.671C127.189 102.671 127.248 102.656 127.301 102.626C127.353 102.597 127.397 102.554 127.429 102.502C128.202 101.411 129.127 100.435 130.175 99.6046C130.24 99.539 130.276 99.4504 130.276 99.3582C130.276 99.2659 130.24 99.1773 130.175 99.1117Z" fill="white"/>
<path d="M108.19 113.473L101.543 103.016L109.24 98.8867L111.26 106.865L125.494 114.57C126.055 114.367 126.664 114.333 127.245 114.471C127.826 114.609 128.355 114.913 128.766 115.347C129.178 115.78 129.454 116.325 129.562 116.913C129.671 117.501 129.605 118.109 129.375 118.661C129.144 119.213 128.759 119.685 128.264 120.021C127.77 120.358 127.189 120.542 126.592 120.553C125.995 120.564 125.408 120.401 124.902 120.083C124.396 119.766 123.993 119.307 123.742 118.764L108.19 113.473Z" fill="#A0616A"/>
<path d="M96.687 90.4739C94.5986 93.5457 102.02 104.711 102.02 104.711C102.382 103.93 105.838 112.698 106.417 112.18C108.062 110.708 110.638 106.608 112.069 106.425C112.888 106.321 110.171 100.504 110.171 100.504C110.171 100.504 108.929 97.0692 107.243 92.6818C106.79 91.4325 106.028 90.3185 105.029 89.4434C104.03 88.5683 102.827 87.9607 101.53 87.677C101.53 87.677 98.7755 87.4022 96.687 90.4739Z" fill="#1981B4"/>
<path d="M96.789 190.552L99.9456 190.552L101.447 178.355L96.7883 178.355L96.789 190.552Z" fill="#A0616A"/>
<path d="M95.9837 189.52L96.8722 189.52L100.341 188.106L102.2 189.519H102.201C103.251 189.52 104.259 189.938 105.002 190.682C105.745 191.426 106.162 192.436 106.162 193.488V193.617L95.9839 193.618L95.9837 189.52Z" fill="#2F2E41"/>
<path d="M111.454 190.552L114.611 190.552L116.113 178.355L111.454 178.355L111.454 190.552Z" fill="#A0616A"/>
<path d="M110.649 189.52L111.537 189.52L115.006 188.106L116.866 189.519H116.866C117.917 189.52 118.924 189.938 119.667 190.682C120.41 191.426 120.828 192.436 120.828 193.488V193.617L110.649 193.618L110.649 189.52Z" fill="#2F2E41"/>
<path d="M112.821 123.868L92.2882 124.383C88.3887 126.504 88.3295 131.097 89.6072 136.549C89.6072 136.549 89.1759 139.79 90.0385 140.654C90.9012 141.518 91.3325 141.518 90.9012 143.031C90.4699 144.543 92.7488 147.013 92.472 147.29C92.1952 147.568 91.5482 149.08 91.5482 149.08L93.7048 161.395C93.7048 161.395 95.2145 182.784 95.6458 183.216C96.0772 183.648 96.5085 183.216 96.0772 184.296C95.6458 185.376 95.2145 184.944 95.6458 185.376C96.0279 185.789 96.3879 186.222 96.7242 186.673H101.938C101.938 186.673 102.331 184.512 102.331 184.296C102.331 184.08 102.763 182.784 102.763 182.568C102.763 182.352 102.382 181.97 102.382 181.97C102.25 181.53 102.161 181.08 102.116 180.623C102.116 180.191 100.822 163.555 100.822 163.555L103.41 141.95L109.664 163.123C109.664 163.123 109.664 181.703 110.095 182.136C110.527 182.568 110.527 182.352 110.311 183.216C110.095 184.08 109.233 183.864 109.88 184.512C110.527 185.16 110.742 184.08 110.527 185.16L110.311 186.24L116.781 186.333C116.781 186.333 117.644 184.512 117.212 183.864C116.781 183.216 116.807 183.393 117.333 182.332C117.859 181.271 118.075 181.055 117.859 180.839C117.644 180.623 117.644 179.474 117.644 179.474L116.565 158.802C116.565 158.802 116.35 136.981 116.35 136.333C116.334 136 116.395 135.667 116.529 135.361V134.481L115.703 131.364L112.821 123.868Z" fill="#2F2E41"/>
<path d="M100.487 81.0988C104.01 81.0988 106.866 78.2376 106.866 74.708C106.866 71.1784 104.01 68.3171 100.487 68.3171C96.9632 68.3171 94.107 71.1784 94.107 74.708C94.107 78.2376 96.9632 81.0988 100.487 81.0988Z" fill="#A0616A"/>
<path d="M103.676 85.3227C105.051 86.1412 105.873 87.6452 106.345 89.1755C107.219 92.0089 107.744 94.9383 107.911 97.899L108.409 106.763L114.583 125.637C109.233 130.172 89.1207 126.668 89.1207 126.668C89.1207 126.668 88.5033 126.461 89.1207 125.843C89.738 125.224 90.3391 125.772 89.7217 125.154C89.1043 124.535 89.5299 125.224 89.7357 124.606C89.9415 123.988 89.7357 124.4 89.5299 124.194C89.3241 123.988 91.123 122.132 91.123 122.132L89.4767 111.298L87.4188 89.4458C89.8883 86.3535 94.8548 84.5305 94.8548 84.5305L96.1381 82.2166L102.554 82.7308L103.676 85.3227Z" fill="#1981B4"/>
<path d="M105.745 71.3127C106.241 71.6832 106.609 72.2001 106.796 72.7907C106.868 71.8255 106.872 70.8565 106.809 69.8907C106.734 69.212 106.257 69.0594 105.705 68.8825C105.206 68.7227 104.642 68.5421 104.49 67.8833C102.485 65.929 98.9941 66.0275 96.605 66.7092C95.2904 67.0843 94.534 67.5663 94.4663 67.8486L94.4523 67.9068L94.3989 67.9335C93.3856 68.4411 93.1883 70.0439 93.2013 71.299C93.226 73.6639 94.0411 76.3497 94.5003 76.5679C94.5246 76.5795 94.5307 76.5749 94.5413 76.5661C95.2326 76.0126 96.0762 76.6082 96.4469 76.932C96.6655 75.4622 97.3695 74.1082 98.4464 73.0862C99.5233 72.0643 100.911 71.4333 102.388 71.2941C102.87 71.2474 103.349 71.1671 103.82 71.0536C104.059 70.9917 104.304 70.9594 104.551 70.9574C104.976 70.951 105.393 71.075 105.745 71.3127Z" fill="#2F2E41"/>
<path d="M145.349 128.961L157.62 116.477L160.854 106.492L155.651 104.384C153.073 106.988 150.42 114.962 150.42 114.962L142.044 126.223C141.977 126.248 141.911 126.274 141.845 126.305C141.459 126.488 141.127 126.767 140.881 127.115C140.634 127.464 140.481 127.87 140.437 128.295C140.393 128.72 140.46 129.149 140.63 129.541C140.8 129.933 141.068 130.274 141.408 130.532C141.748 130.79 142.148 130.955 142.571 131.013C142.994 131.07 143.424 131.017 143.82 130.859C144.216 130.701 144.565 130.443 144.833 130.111C145.101 129.778 145.278 129.382 145.349 128.961Z" fill="#FFB8B8"/>
<path d="M154.231 105.526L160.811 107.433L160.836 107.428C163.254 106.958 165.168 102.931 166.347 99.6364C166.734 98.5496 166.696 97.3558 166.239 96.2963C165.782 95.2369 164.94 94.3909 163.884 93.9293C163.103 93.594 162.244 93.4844 161.403 93.6127C160.563 93.741 159.776 94.1023 159.13 94.6555L155.849 97.4855L154.231 105.526Z" fill="#F3B815"/>
<path d="M148.602 190.181L145.063 190.181L143.38 176.508L148.602 176.508L148.602 190.181Z" fill="#FFB8B8"/>
<path d="M149.505 189.024L148.509 189.024L144.62 187.44L142.536 189.024H142.535C141.358 189.024 140.228 189.492 139.395 190.327C138.562 191.161 138.094 192.293 138.094 193.473V193.617L149.504 193.618L149.505 189.024Z" fill="#2F2E41"/>
<path d="M164.303 190.181L160.765 190.181L159.081 176.508L164.304 176.508L164.303 190.181Z" fill="#FFB8B8"/>
<path d="M165.206 189.024L164.21 189.024L160.321 187.44L158.237 189.024H158.237C157.059 189.024 155.93 189.492 155.097 190.327C154.264 191.161 153.796 192.293 153.796 193.473V193.617L165.206 193.618L165.206 189.024Z" fill="#2F2E41"/>
<path d="M169.699 131.286C169.699 131.286 170.112 136.253 169.079 141.014C168.046 145.774 168.046 159.18 168.046 159.18L165.774 185.304L158.956 184.683L157.097 141.014L150.485 155.708L151.105 157.778L150.28 158.295C150.28 158.295 150.899 162.331 150.485 162.331C150.072 162.331 149.039 162.952 149.039 162.952L149.866 184.269L142.841 184.062L140.362 154.052L143.048 136.874L143.255 133.563L144.184 133.601L144.658 132.218L145.527 129.837L169.699 131.286Z" fill="#2F2E41"/>
<path d="M170.056 132.329L170.093 132.278C172.06 129.52 169.102 122.892 168.656 121.931L170.535 121.321L170.112 117.718L169.911 116.112L171.347 114.673L171.351 114.637L172.178 107.393L173.379 102.582C173.832 100.763 173.793 98.8566 173.267 97.0576C172.741 95.2587 171.747 93.6323 170.386 92.3456L167.609 89.7222L164.234 84.719H158.79L156.924 88.2505C155.115 88.6695 153.509 89.7111 152.388 91.1938C151.266 92.6766 150.699 94.5066 150.786 96.365L151.209 105.627L149.553 117.159L149.552 119.247L147.688 121.321L148.095 123.359L146.677 123.968L146.051 126.896C145.791 127.238 144.081 129.523 144.081 130.148C144.081 130.242 144.15 130.332 144.298 130.433C145.464 131.224 151.907 132.836 154.759 131.693C157.797 130.476 169.872 132.301 169.993 132.32L170.056 132.329Z" fill="#F3B815"/>
<path d="M160.809 83.1039C164.79 83.1039 168.018 79.8706 168.018 75.8823C168.018 71.8939 164.79 68.6606 160.809 68.6606C156.828 68.6606 153.6 71.8939 153.6 75.8823C153.6 79.8706 156.828 83.1039 160.809 83.1039Z" fill="#FFB8B8"/>
<path d="M160.118 83.2208C161.235 83.2094 162.348 83.1025 163.446 82.9012C164.534 82.6503 166.932 80.792 167.586 79.6942C168.072 78.8786 168.364 77.617 168.523 76.7023C168.737 75.4918 168.696 74.2496 168.401 73.0562C168.106 71.8627 167.564 70.7446 166.811 69.7743C166.52 69.3677 166.125 69.0474 165.668 68.8473C165.628 68.8326 165.586 68.8198 165.544 68.809C164.881 68.6524 164.28 68.301 163.818 67.7998C163.728 67.6983 163.631 67.6034 163.528 67.5159C163.01 67.1001 162.401 66.8132 161.75 66.6785C160.7 66.4257 159.197 66.7424 157.284 67.6206C156.323 68.0618 155.256 67.9387 154.434 67.7822C154.388 67.7745 154.34 67.7791 154.296 67.7954C154.253 67.8117 154.214 67.8392 154.184 67.8752C153.844 68.2114 153.391 68.4064 152.913 68.421C152.622 68.4414 152.325 68.8547 151.968 69.393C151.887 69.5151 151.793 69.6577 151.724 69.7447L151.711 69.5813L151.55 69.7682C151.297 70.0618 151.123 70.4147 151.044 70.794C150.964 71.1733 150.981 71.5666 151.094 71.9373C151.207 72.3079 151.412 72.644 151.689 72.9141C151.967 73.1842 152.308 73.3796 152.681 73.482C152.977 73.5528 153.28 73.5931 153.584 73.6023C153.768 73.6141 153.959 73.6263 154.142 73.6533C154.731 73.7583 155.282 74.0143 155.742 74.3963C156.202 74.7784 156.556 75.2735 156.768 75.8332C156.818 75.9626 156.897 76.0787 156.999 76.1726C157.101 76.2664 157.223 76.3356 157.356 76.3746C157.489 76.4137 157.629 76.4216 157.765 76.3979C157.902 76.3741 158.031 76.3192 158.143 76.2375C158.329 76.0843 158.55 75.9786 158.785 75.9293C159.021 75.8799 159.265 75.8884 159.497 75.9541C159.699 76.0596 159.858 76.2314 159.948 76.4406C160.057 76.6734 160.233 76.8684 160.453 77.0007C161.203 77.3641 161.298 79.0576 161.069 80.4772C160.847 81.8456 160.366 82.8439 159.898 82.9047C159.537 82.9515 159.497 82.9783 159.472 83.043L159.45 83.1009L159.492 83.1534C159.694 83.2207 159.907 83.2437 160.118 83.2208Z" fill="#2F2E41"/>
<path d="M154.137 106.299L150.672 101.876C147.143 102.849 140.88 108.442 140.88 108.442L128.018 114.033C127.589 113.961 127.148 114.003 126.741 114.156C126.333 114.308 125.972 114.566 125.696 114.902C125.419 115.239 125.235 115.642 125.164 116.072C125.092 116.503 125.135 116.944 125.288 117.352C125.44 117.761 125.698 118.121 126.034 118.398C126.37 118.675 126.774 118.859 127.203 118.93C127.633 119.001 128.073 118.958 128.481 118.804C128.888 118.651 129.248 118.392 129.524 118.055L146.372 113.346L154.137 106.299Z" fill="#FFB8B8"/>
<path d="M153.307 107.31L158.774 101.204L159.078 96.8779C159.134 96.0284 158.953 95.18 158.553 94.4285C158.154 93.677 157.552 93.0525 156.817 92.6255C155.816 92.0533 154.636 91.8832 153.515 92.1494C152.394 92.4157 151.416 93.0984 150.778 94.0596C148.846 96.9764 146.768 100.92 147.837 103.143L147.848 103.166L153.307 107.31Z" fill="#F3B815"/>
<path d="M102.914 130.259L88.7043 122.968C87.6936 122.45 87.3588 121.074 87.958 119.902L97.2233 101.779C97.8225 100.607 99.1323 100.075 100.143 100.594L114.353 107.884C115.364 108.403 115.699 109.778 115.1 110.951L105.834 129.074C105.235 130.246 103.925 130.778 102.914 130.259Z" fill="#E6E6E6"/>
<path d="M100.486 126.907L90.832 121.954C89.8853 121.468 89.5717 120.18 90.1329 119.082L97.8304 104.026C98.3916 102.928 99.6183 102.43 100.565 102.916L112.226 108.899C113.172 109.384 113.486 110.673 112.925 111.77L108.743 119.95C106.243 124.839 104.703 129.071 100.486 126.907Z" fill="white"/>
<path d="M105.26 118.685L96.7086 114.298C96.604 114.223 96.5298 114.113 96.4994 113.988C96.4689 113.863 96.4844 113.732 96.5429 113.617C96.6015 113.503 96.6991 113.413 96.8181 113.365C96.9371 113.317 97.0695 113.313 97.191 113.354L105.742 117.741C105.847 117.816 105.921 117.926 105.952 118.051C105.982 118.176 105.967 118.308 105.908 118.422C105.849 118.537 105.752 118.626 105.633 118.674C105.514 118.723 105.381 118.726 105.26 118.685Z" fill="#F3B815"/>
<path d="M97.707 117.163L95.7555 116.162C95.6509 116.087 95.5766 115.978 95.5462 115.853C95.5158 115.728 95.5313 115.596 95.5898 115.482C95.6483 115.367 95.746 115.277 95.865 115.229C95.984 115.181 96.1164 115.177 96.2379 115.218L98.1894 116.22C98.294 116.294 98.3682 116.404 98.3987 116.529C98.4291 116.654 98.4136 116.786 98.3551 116.9C98.2966 117.015 98.1989 117.104 98.0799 117.153C97.9609 117.201 97.8285 117.205 97.707 117.163Z" fill="#F3B815"/>
<path d="M100.21 120.801L94.8023 118.027C94.6978 117.952 94.6235 117.842 94.5931 117.717C94.5627 117.592 94.5781 117.46 94.6367 117.346C94.6952 117.232 94.7929 117.142 94.9118 117.094C95.0308 117.045 95.1632 117.042 95.2848 117.083L100.693 119.857C100.797 119.932 100.871 120.042 100.902 120.167C100.932 120.292 100.917 120.424 100.858 120.538C100.8 120.653 100.702 120.742 100.583 120.79C100.464 120.839 100.332 120.842 100.21 120.801Z" fill="#F3B815"/>
<path d="M108.644 112.066L100.093 107.679C99.988 107.604 99.9137 107.494 99.8833 107.369C99.8529 107.244 99.8683 107.113 99.9269 106.998C99.9854 106.884 100.083 106.794 100.202 106.746C100.321 106.697 100.453 106.694 100.575 106.735L109.126 111.122C109.231 111.197 109.305 111.307 109.336 111.432C109.366 111.557 109.35 111.688 109.292 111.803C109.233 111.917 109.136 112.007 109.017 112.055C108.898 112.104 108.765 112.107 108.644 112.066Z" fill="#F3B815"/>
<path d="M101.091 110.544L99.1394 109.543C99.0349 109.468 98.9606 109.358 98.9302 109.234C98.8998 109.109 98.9152 108.977 98.9738 108.862C99.0323 108.748 99.13 108.658 99.2489 108.61C99.3679 108.562 99.5003 108.558 99.6219 108.599L101.573 109.601C101.678 109.675 101.752 109.785 101.783 109.91C101.813 110.035 101.798 110.167 101.739 110.281C101.68 110.396 101.583 110.485 101.464 110.533C101.345 110.582 101.212 110.586 101.091 110.544Z" fill="#F3B815"/>
<path d="M103.594 114.182L98.1863 111.407C98.0817 111.333 98.0075 111.223 97.977 111.098C97.9466 110.973 97.9621 110.841 98.0206 110.727C98.0791 110.612 98.1768 110.523 98.2958 110.475C98.4148 110.426 98.5472 110.422 98.6687 110.464L104.077 113.238C104.181 113.313 104.255 113.423 104.286 113.548C104.316 113.673 104.301 113.804 104.242 113.919C104.184 114.033 104.086 114.123 103.967 114.171C103.848 114.22 103.716 114.223 103.594 114.182Z" fill="#F3B815"/>
<path d="M91.1391 114.481L87.9289 102.509L96.5075 100.882L96.0462 109.1L107.318 120.726C107.915 120.702 108.506 120.852 109.019 121.158C109.532 121.464 109.945 121.913 110.207 122.451C110.47 122.988 110.571 123.59 110.498 124.184C110.425 124.778 110.181 125.338 109.796 125.795C109.411 126.252 108.901 126.587 108.329 126.759C107.757 126.932 107.148 126.933 106.575 126.764C106.002 126.596 105.49 126.263 105.103 125.808C104.715 125.353 104.468 124.795 104.391 124.201L91.1391 114.481Z" fill="#A0616A"/>
<path d="M87.051 89.085C84.1391 91.3879 87.8766 104.269 87.8766 104.269C88.4552 103.633 89.1276 113.035 89.8349 112.715C91.8451 111.805 95.5295 108.668 96.9499 108.923C97.7622 109.07 96.9112 102.704 96.9112 102.704C96.9112 102.704 96.7546 99.0546 96.4605 94.3627C96.4018 93.0347 96.0088 91.7432 95.3179 90.6083C94.6269 89.4734 93.6606 88.5321 92.5089 87.872C92.5089 87.872 89.9629 86.7821 87.051 89.085Z" fill="#1981B4"/>
<path d="M135.502 141.055L127.748 137.387C127.582 137.309 127.436 137.194 127.321 137.051C127.206 136.909 127.124 136.742 127.082 136.563C127.04 136.388 127.038 136.206 127.077 136.03C127.115 135.855 127.192 135.69 127.303 135.549C129.549 132.673 131.092 129.31 131.807 125.729C131.861 125.455 132.008 125.208 132.223 125.03C132.439 124.853 132.709 124.755 132.988 124.755C136.943 124.769 139.899 126.215 141.773 129.054C141.872 129.202 141.937 129.369 141.965 129.545C141.992 129.721 141.981 129.9 141.932 130.071C140.847 133.818 139.196 137.377 137.036 140.624C136.875 140.869 136.632 141.048 136.35 141.127C136.068 141.206 135.767 141.181 135.502 141.055Z" fill="#E6E6E6"/>
<path d="M137.784 135.91L131.854 133.105C131.707 133.035 131.593 132.91 131.538 132.756C131.483 132.602 131.491 132.433 131.561 132.285C131.631 132.137 131.756 132.023 131.91 131.968C132.063 131.913 132.232 131.921 132.38 131.991L138.309 134.796C138.382 134.83 138.447 134.879 138.502 134.939C138.556 134.999 138.598 135.069 138.625 135.145C138.652 135.221 138.664 135.302 138.661 135.383C138.657 135.463 138.637 135.543 138.602 135.616C138.568 135.689 138.519 135.755 138.46 135.809C138.4 135.863 138.33 135.906 138.254 135.933C138.178 135.96 138.097 135.972 138.016 135.968C137.936 135.964 137.857 135.945 137.784 135.91Z" fill="white"/>
<path d="M138.705 133.956L132.776 131.151C132.628 131.081 132.514 130.956 132.459 130.802C132.404 130.648 132.412 130.479 132.482 130.331C132.552 130.183 132.677 130.069 132.831 130.014C132.984 129.959 133.153 129.967 133.301 130.037L139.23 132.842C139.377 132.911 139.491 133.037 139.546 133.191C139.601 133.345 139.593 133.514 139.523 133.662C139.454 133.81 139.328 133.924 139.175 133.979C139.021 134.034 138.852 134.026 138.705 133.956Z" fill="white"/>
<path d="M130.782 72.6164L130.23 72.677C127.769 62.9897 123 56.2784 116.436 53.2686C108.092 49.4426 97.7743 52.0118 87.3835 60.5031C76.9399 69.0377 67.6946 82.5188 61.3508 98.4635L60.8153 98.218C67.1869 82.2036 76.4797 68.6575 86.9818 60.0754C97.5366 51.4499 108.065 48.8618 116.627 52.788C123.379 55.8841 128.274 62.7407 130.782 72.6164Z" fill="#F2F2F2"/>
<path d="M69.892 85.2329C68.4487 88.2789 67.0759 91.4345 65.8116 94.612C58.5364 112.898 54.8497 131.572 55.151 148.617L54.5824 148.556C54.2808 131.448 57.9782 112.709 65.2761 94.3665C66.544 91.18 67.9207 88.0155 69.3682 84.9609L69.892 85.2329Z" fill="#F2F2F2"/>
<path d="M69.6191 97.7971C68.1758 100.843 66.8029 103.999 65.5387 107.176C58.2635 125.462 54.5768 144.136 54.878 161.181L54.3094 161.121C54.0079 144.012 57.7052 125.273 65.0031 106.931C66.271 103.744 67.6478 100.58 69.0953 97.5251L69.6191 97.7971Z" fill="#F2F2F2"/>
<path d="M54.3368 102.367C54.9653 101.42 54.5933 100.065 53.5058 99.3406C52.4184 98.6158 51.0273 98.7955 50.3987 99.7419C49.7702 100.688 50.1422 102.043 51.2297 102.768C52.3171 103.493 53.7082 103.313 54.3368 102.367Z" fill="#CCCCCC"/>
<path d="M188.179 136.545C188.807 135.599 188.435 134.244 187.348 133.519C186.26 132.794 184.869 132.974 184.241 133.92C183.612 134.867 183.984 136.222 185.072 136.946C186.159 137.671 187.55 137.491 188.179 136.545Z" fill="#CCCCCC"/>
</g>
<defs>
<filter id="filter0_d_1_211" x="3" y="16" width="253" height="230" filterUnits="userSpaceOnUse" color-interpolation-filters="sRGB">
<feFlood flood-opacity="0" result="BackgroundImageFix"/>
<feColorMatrix in="SourceAlpha" type="matrix" values="0 0 0 0 0 0 0 0 0 0 0 0 0 0 0 0 0 0 127 0" result="hardAlpha"/>
<feOffset dy="8"/>
<feGaussianBlur stdDeviation="8"/>
<feComposite in2="hardAlpha" operator="out"/>
<feColorMatrix type="matrix" values="0 0 0 0 0 0 0 0 0 0 0 0 0 0 0 0 0 0 0.24 0"/>
<feBlend mode="normal" in2="BackgroundImageFix" result="effect1_dropShadow_1_211"/>
<feBlend mode="normal" in="SourceGraphic" in2="effect1_dropShadow_1_211" result="shape"/>
</filter>
<linearGradient id="paint0_linear_1_211" x1="19" y1="222" x2="215.81" y2="2.32783" gradientUnits="userSpaceOnUse">
<stop stop-color="#98197F"/>
<stop offset="1" stop-color="#1981B4"/>
</linearGradient>
<clipPath id="clip0_1_211">
<rect width="176" height="143" fill="white" transform="translate(42 51)"/>
</clipPath>
</defs>
</svg>
