<svg width="260" height="260" viewBox="0 0 260 260" fill="none" xmlns="http://www.w3.org/2000/svg">
<g filter="url(#filter0_d_1_72)">
<path d="M183.82 64.2201C201.76 81.1201 219.96 95.9401 225.94 115.18C231.92 134.68 225.94 158.34 214.24 178.36C202.28 198.64 184.86 215.54 164.06 222.82C143.26 230.36 119.34 228.02 99.58 218.66C79.82 209.3 64.74 192.92 54.6 174.2C44.46 155.48 39.52 134.42 42.12 113.36C44.46 92.5601 54.34 72.2801 70.2 54.8601C86.06 37.7001 108.16 23.9201 127.92 26.2601C147.94 28.6001 165.62 47.3201 183.82 64.2201Z" fill="url(#paint0_linear_1_72)"/>
</g>
<g clip-path="url(#clip0_1_72)">
<path d="M64.367 175.277C64.3549 175.223 63.1875 169.87 65.5717 165.425C67.9559 160.979 73.0452 159.018 73.0963 158.999L73.3289 158.911L73.3839 159.155C73.396 159.208 74.5634 164.561 72.1792 169.007C69.7951 173.453 64.7057 175.413 64.6545 175.433L64.4218 175.521L64.367 175.277ZM73.01 159.506C71.9905 159.947 67.9671 161.877 65.9535 165.632C63.9396 169.387 64.5472 173.828 64.7409 174.926C65.7599 174.486 69.7817 172.559 71.7974 168.8C73.8112 165.045 73.2038 160.605 73.01 159.506Z" fill="#F1F1F1"/>
<path d="M70.3573 167.448C66.0727 170.04 64.4226 175.188 64.4226 175.188C64.4226 175.188 69.7191 176.134 74.0037 173.542C78.2882 170.95 79.9383 165.802 79.9383 165.802C79.9383 165.802 74.6418 164.856 70.3573 167.448Z" fill="#F1F1F1"/>
<path d="M135.241 125.897C135.307 125.558 135.297 125.209 135.214 124.874C135.13 124.539 134.975 124.226 134.758 123.958C134.541 123.69 134.269 123.473 133.96 123.322C133.651 123.172 133.313 123.091 132.969 123.086L130.985 118.069L127.659 118.537L130.56 125.583C130.589 126.164 130.83 126.713 131.236 127.128C131.642 127.542 132.185 127.792 132.762 127.831C133.339 127.87 133.91 127.694 134.367 127.338C134.824 126.982 135.135 126.469 135.241 125.897Z" fill="#9F616A"/>
<path d="M129.113 124.134L128.083 121.663L121.66 109.37L122.009 86.6245L122.076 86.6155C126.186 86.0696 128.967 105.109 129.083 105.92L133.141 119.875L134.107 122.951L129.113 124.134Z" fill="#F3B815"/>
<path d="M119.245 172.098L122.367 172.098L123.853 159.987L119.244 159.987L119.245 172.098Z" fill="#9F616A"/>
<path d="M118.448 171.073L124.598 171.073H124.598C125.637 171.073 126.634 171.488 127.369 172.227C128.104 172.966 128.517 173.968 128.517 175.013V175.141L118.448 175.142L118.448 171.073Z" fill="#2F2E41"/>
<path d="M90.5322 167.314L93.0944 169.109L101.2 160.027L97.4183 157.378L90.5322 167.314Z" fill="#9F616A"/>
<path d="M90.4617 166.015L95.5073 169.55L95.5075 169.551C96.3603 170.148 96.942 171.062 97.1248 172.091C97.3075 173.119 97.0764 174.179 96.4822 175.037L96.4094 175.142L88.1483 169.353L90.4617 166.015Z" fill="#2F2E41"/>
<path d="M117.528 169.251L117.393 146.532L115.429 132.246L111.765 144.809L111.758 144.82L98.4833 164.198L93.3179 161.566L93.3462 161.499C93.6618 160.744 101.1 143.012 103.1 143.012C103.274 143.025 103.449 142.994 103.609 142.923C103.77 142.853 103.91 142.744 104.019 142.606C104.606 141.818 104.128 140.146 104.123 140.129C103.551 137.743 104.99 136.93 105.277 136.795L106.048 120.793L106.128 120.799L127.027 122.273L126.15 142.279L124.264 168.491L124.199 168.499L117.528 169.251Z" fill="#2F2E41"/>
<path d="M127.534 125.424L127.443 125.417L104.966 123.595L105.022 116.117L106.122 96.592L106.128 96.5785L110.608 86.7986L113.784 85.3526L118.418 85.1074L118.429 85.1103L122.658 86.1637L127.057 117.915L127.534 125.424Z" fill="#F3B815"/>
<path d="M127.534 125.424L127.443 125.417L104.966 123.595L105.022 116.117L106.122 96.592L106.128 96.5785L110.608 86.7986L113.784 85.3526L118.418 85.1074L118.429 85.1103L122.658 86.1637L127.057 117.915L127.534 125.424Z" fill="black" fill-opacity="0.2"/>
<path d="M118.957 82.995C121.825 81.4187 122.878 77.8032 121.311 74.9196C119.743 72.036 116.147 70.9762 113.279 72.5525C110.412 74.1289 109.358 77.7444 110.925 80.628C112.493 83.5116 116.089 84.5714 118.957 82.995Z" fill="#9F616A"/>
<path d="M110.167 79.2677V76.9492C110.167 76.9492 108.307 74.7472 110.353 74.1925C110.353 74.1925 110.91 68.6456 115.745 71.2342C115.745 71.2342 122.439 70.1248 121.695 74.0076C121.695 74.0076 123.369 72.9939 122.811 75.5825L121.732 79.7522C121.732 79.7522 122.253 76.9978 120.58 76.628L119.65 76.0733C119.65 76.0733 117.047 78.6619 113.142 75.5186C113.142 75.5186 111.468 75.117 111.654 76.7811C111.84 78.4452 110.167 79.2677 110.167 79.2677Z" fill="#2F2E41"/>
<path d="M115.502 120.234C115.506 119.889 115.434 119.547 115.292 119.232C115.15 118.917 114.941 118.638 114.68 118.413C114.419 118.189 114.113 118.024 113.782 117.932C113.451 117.839 113.104 117.821 112.765 117.878L109.917 113.3L106.729 114.362L110.84 120.769C110.973 121.335 111.308 121.833 111.781 122.167C112.254 122.501 112.833 122.65 113.408 122.584C113.982 122.518 114.513 122.242 114.899 121.809C115.285 121.376 115.499 120.816 115.502 120.234Z" fill="#9F616A"/>
<path d="M108.148 118.791L102.997 108.275L103.001 108.249C103.022 108.133 105.096 96.5565 106.681 92.3013C108.277 88.0192 110.462 87.1594 110.554 87.1249L110.6 87.1077L112.559 88.9968L109.846 107.207L112.77 115.989L108.148 118.791Z" fill="#F3B815"/>
<path d="M235.394 66.4353H225.42V76.464H235.394V66.4353Z" fill="#F1F1F1"/>
<path d="M157.338 105.46H147.364V115.489H157.338V105.46Z" fill="#F1F1F1"/>
<path d="M152.962 111.094H231.815V70.9556H152.962V111.094Z" fill="white"/>
<path d="M232.466 111.748H152.312V70.3015H232.466V111.748ZM153.613 110.44H231.165V71.6096H153.613V110.44Z" fill="#E5E5E5"/>
<path d="M223.096 85.0354H162.427V87.0584H223.096V85.0354Z" fill="#E5E5E5"/>
<path d="M223.096 89.9414H162.427V91.9644H223.096V89.9414Z" fill="#E5E5E5"/>
<path d="M223.096 97.1853H211.821V98.9409H223.096V97.1853Z" fill="#F3B815"/>
<path d="M137.779 175.512H55.1695C55.112 175.512 55.0568 175.489 55.0161 175.448C54.9755 175.407 54.9526 175.352 54.9526 175.294C54.9526 175.236 54.9755 175.18 55.0161 175.14C55.0568 175.099 55.112 175.076 55.1695 175.076H137.779C137.837 175.076 137.892 175.099 137.932 175.14C137.973 175.18 137.996 175.236 137.996 175.294C137.996 175.352 137.973 175.407 137.932 175.448C137.892 175.489 137.837 175.512 137.779 175.512Z" fill="#CBCBCB"/>
</g>
<defs>
<filter id="filter0_d_1_72" x="25.4351" y="18.0002" width="218.856" height="233.309" filterUnits="userSpaceOnUse" color-interpolation-filters="sRGB">
<feFlood flood-opacity="0" result="BackgroundImageFix"/>
<feColorMatrix in="SourceAlpha" type="matrix" values="0 0 0 0 0 0 0 0 0 0 0 0 0 0 0 0 0 0 127 0" result="hardAlpha"/>
<feOffset dy="8"/>
<feGaussianBlur stdDeviation="8"/>
<feComposite in2="hardAlpha" operator="out"/>
<feColorMatrix type="matrix" values="0 0 0 0 0 0 0 0 0 0 0 0 0 0 0 0 0 0 0.24 0"/>
<feBlend mode="normal" in2="BackgroundImageFix" result="effect1_dropShadow_1_72"/>
<feBlend mode="normal" in="SourceGraphic" in2="effect1_dropShadow_1_72" result="shape"/>
</filter>
<linearGradient id="paint0_linear_1_72" x1="41.4351" y1="227.309" x2="242.187" y2="40.971" gradientUnits="userSpaceOnUse">
<stop stop-color="#98197F"/>
<stop offset="1" stop-color="#1981B4"/>
</linearGradient>
<clipPath id="clip0_1_72">
<rect width="180.442" height="109.085" fill="white" transform="translate(54.9526 66.4353)"/>
</clipPath>
</defs>
</svg>
