<svg width="48" height="48" viewBox="0 0 48 48" fill="none" xmlns="http://www.w3.org/2000/svg">
<path d="M23.25 33.5V32.5192C21.1667 32.3051 19.4128 31.4859 17.9885 30.0616C16.5641 28.6372 15.7449 26.8834 15.5308 24.8H14.55C14.3375 24.8 14.1594 24.7281 14.0157 24.5843C13.8719 24.4405 13.8 24.2623 13.8 24.0497C13.8 23.8371 13.8719 23.659 14.0157 23.5154C14.1594 23.3719 14.3375 23.3001 14.55 23.3001H15.5308C15.7449 21.2167 16.5641 19.4629 17.9885 18.0385C19.4128 16.6142 21.1667 15.7949 23.25 15.5808V14.6001C23.25 14.3876 23.3219 14.2095 23.4657 14.0657C23.6095 13.922 23.7877 13.8501 24.0003 13.8501C24.2129 13.8501 24.391 13.922 24.5346 14.0657C24.6782 14.2095 24.75 14.3876 24.75 14.6001V15.5808C26.8333 15.7949 28.5872 16.6142 30.0115 18.0385C31.4359 19.4629 32.2551 21.2167 32.4692 23.3001H33.45C33.6625 23.3001 33.8406 23.372 33.9843 23.5158C34.1281 23.6596 34.1999 23.8378 34.1999 24.0504C34.1999 24.263 34.1281 24.4411 33.9843 24.5846C33.8406 24.7282 33.6625 24.8 33.45 24.8H32.4692C32.2551 26.8834 31.4359 28.6372 30.0115 30.0616C28.5872 31.4859 26.8333 32.3051 24.75 32.5192V33.5C24.75 33.7125 24.6781 33.8906 24.5343 34.0344C24.3905 34.1781 24.2123 34.25 23.9997 34.25C23.7871 34.25 23.609 34.1781 23.4654 34.0344C23.3218 33.8906 23.25 33.7125 23.25 33.5ZM24 31.05C25.9333 31.05 27.5833 30.3667 28.95 29C30.3167 27.6334 31 25.9834 31 24.05C31 22.1167 30.3167 20.4667 28.95 19.1C27.5833 17.7334 25.9333 17.05 24 17.05C22.0667 17.05 20.4167 17.7334 19.05 19.1C17.6833 20.4667 17 22.1167 17 24.05C17 25.9834 17.6833 27.6334 19.05 29C20.4167 30.3667 22.0667 31.05 24 31.05Z" fill="#2D3748"/>
</svg>
